<svg xmlns="http://www.w3.org/2000/svg" viewBox="0 0 32 32"><title>browser android app aplication phone</title><g id="browser_android_app_aplication_phone" data-name="browser android app aplication phone"><path d="M30.56,8.47a8,8,0,0,0-7-7,64.29,64.29,0,0,0-15.06,0,8,8,0,0,0-7,7,64.29,64.29,0,0,0,0,15.06,8,8,0,0,0,7,7,64.29,64.29,0,0,0,15.06,0,8,8,0,0,0,7-7A64.29,64.29,0,0,0,30.56,8.47Zm-2,14.83a6,6,0,0,1-5.28,5.28,63.65,63.65,0,0,1-14.6,0A6,6,0,0,1,3.42,23.3a63.65,63.65,0,0,1,0-14.6A6,6,0,0,1,8.7,3.42a63.65,63.65,0,0,1,14.6,0A6,6,0,0,1,28.58,8.7,63.65,63.65,0,0,1,28.58,23.3Z"/><path d="M16,6A10,10,0,1,0,26,16,10,10,0,0,0,16,6Zm7.93,9H22a14,14,0,0,0-1.42-5.57A8,8,0,0,1,23.93,15ZM15,8.3V15H12C12.26,11.62,13.57,9.12,15,8.3ZM15,17v6.7c-1.43-.82-2.74-3.32-3-6.7Zm2,6.7V17h3C19.74,20.38,18.43,22.88,17,23.7ZM17,15V8.3c1.43.82,2.74,3.32,3,6.7ZM11.45,9.43A14,14,0,0,0,10,15h-2A8,8,0,0,1,11.45,9.43ZM8.07,17h2a14,14,0,0,0,1.42,5.57A8,8,0,0,1,8.07,17Zm12.48,5.57A14,14,0,0,0,22,17h2A8,8,0,0,1,20.55,22.57Z"/></g></svg>